HIERARCHY
ROOT Hips
{
     OFFSET 1.88212 96.90440 -13.34250
     CHANNELS 6 Xposition Yposition Zposition Zrotation Xrotation Yrotation
     JOINT Spine
     {
          OFFSET 0.00000 11.89050 0.00000
          CHANNELS 3 Zrotation Xrotation Yrotation
          JOINT Spine1
          {
               OFFSET -0.00000 25.65740 0.12766
               CHANNELS 3 Zrotation Xrotation Yrotation
               JOINT HEad
               {
                    OFFSET 0.00000 8.73416 0.01134
                    CHANNELS 3 Zrotation Xrotation Yrotation
                    End Site
                    {
                         OFFSET -0.29000 12.77420 2.51395
                    }
               }
               JOINT LeftShoulder1
               {
                    OFFSET 8.99000 -0.36225 -0.22000
                    CHANNELS 3 Zrotation Xrotation Yrotation
                    JOINT LeftArm
                    {
                         OFFSET 10.28270 -0.00338 0.32212
                         CHANNELS 3 Zrotation Xrotation Yrotation
                         JOINT LeftForeArm
                         {
                              OFFSET 32.76690 0.09914 -1.42434
                              CHANNELS 3 Zrotation Xrotation Yrotation
                              JOINT LeftHand
                              {
                                   OFFSET 27.56430 0.08536 1.02216
                                   CHANNELS 3 Zrotation Xrotation Yrotation
                                   End Site
                                   {
                                        OFFSET 16.74430 -0.60000 1.50291
                                   }
                              }
                         }
                    }
               }
               JOINT RightShoulder
               {
                    OFFSET -8.99000 -0.36225 -0.22000
                    CHANNELS 3 Zrotation Xrotation Yrotation
                    JOINT RightArm
                    {
                         OFFSET -10.28270 -0.00338 0.32212
                         CHANNELS 3 Zrotation Xrotation Yrotation
                         JOINT RightForeArm
                         {
                              OFFSET -32.89710 0.09914 -1.42434
                              CHANNELS 3 Zrotation Xrotation Yrotation
                              JOINT RightHand
                              {
                                   OFFSET -27.49210 0.08536 1.02216
                                   CHANNELS 3 Zrotation Xrotation Yrotation
                                   End Site
                                   {
                                        OFFSET -16.63120 -0.60000 1.50291
                                   }
                              }
                         }
                    }
               }
          }
     }
     JOINT LeftUpLeg
     {
          OFFSET 8.94580 -8.66707 0.10165
          CHANNELS 3 Zrotation Xrotation Yrotation
          JOINT LeftLeg
          {
               OFFSET 0.00000 -44.42270 1.37270
               CHANNELS 3 Zrotation Xrotation Yrotation
               JOINT LeftFoot
               {
                    OFFSET -0.25355 -42.09240 -1.46059
                    CHANNELS 3 Zrotation Xrotation Yrotation
                    JOINT LeftToes
                    {
                         OFFSET -0.04000 -4.41509 8.49910
                         CHANNELS 3 Zrotation Xrotation Yrotation
                         End Site
                         {
                              OFFSET 0.08000 -0.04745 9.77979
                         }
                    }
               }
          }
     }
     JOINT RightUpLeg
     {
          OFFSET -8.94580 -8.66707 0.10165
          CHANNELS 3 Zrotation Xrotation Yrotation
          JOINT RightLeg
          {
               OFFSET 0.00000 -44.42270 1.37270
               CHANNELS 3 Zrotation Xrotation Yrotation
               JOINT RightFoot
               {
                    OFFSET 0.25355 -42.09240 -1.46059
                    CHANNELS 3 Zrotation Xrotation Yrotation
                    JOINT RightToes
                    {
                         OFFSET 0.04000 -4.41509 8.49910
                         CHANNELS 3 Zrotation Xrotation Yrotation
                         End Site
                         {
                              OFFSET -0.08000 -0.13745 9.77979
                         }
                    }
               }
          }
     }
}
MOTION
Frames: 15
Frame Time: 0.01667
45.17900 96.37660 2.91362 5.45779 56.67291 -121.06353 9.35944 28.49561 -12.67349 -0.01256 -0.00020 0.00184 15.36538 9.69926 -30.29023 1.98342 7.89064 3.53590 -45.20956 27.41067 -78.13119 0.37458 9.90925 -90.72095 21.29475 9.46594 1.85712 39.45625 7.46675 -6.76570 43.05849 -22.88659 14.82320 -26.57786 6.81844 47.40069 16.84696 10.80722 -5.74919 56.72981 2.34113 -24.68438 -28.18220 18.79246 75.87800 -15.11258 -0.00080 -0.00310 8.08309 -30.57792 -83.17413 -41.24167 5.18644 -1.84068 109.87818 15.42547 -83.39246 -30.02578 0.07083 0.03311 -5.56707 16.06716 4.90641 
44.67608 96.22404 3.31205 3.67744 53.34148 -122.97713 7.21137 28.06828 -11.62175 -0.01509 -0.00083 0.00253 16.20698 9.97701 -32.23590 0.14820 7.85811 4.21157 -45.69913 27.51718 -78.01195 0.84911 9.43856 -90.76619 20.99299 9.40630 1.82177 37.19995 7.92628 -6.58907 43.72231 -25.45413 17.42699 -24.86139 6.59931 56.91447 13.65235 11.84971 -5.49686 52.51411 5.02924 -24.28960 -28.78596 17.54234 78.01495 -15.51772 -0.00116 -0.00333 8.76632 -31.72204 -82.78935 -38.68959 5.14888 -4.38231 108.50007 20.54075 -84.87293 -30.02079 0.07579 0.02302 -5.13311 12.78616 3.79539 
44.13470 96.00510 3.77720 2.13424 50.53042 -124.73798 6.53483 28.45197 -11.58849 0.05053 0.08374 -0.02606 17.48395 9.38447 -34.44161 -2.13413 6.92778 5.03494 -46.12867 27.44306 -77.85511 1.26139 9.02223 -90.96228 20.82343 9.55104 1.87334 34.85925 7.57727 -5.66281 43.91778 -27.25614 19.36470 -23.44701 7.17513 62.69118 20.71699 11.24561 -16.78876 48.61873 7.29910 -23.94216 -29.41867 16.23609 80.10985 -15.83230 -0.00116 -0.00340 9.42988 -32.95549 -82.48233 -35.43302 4.98368 -7.68707 106.77333 26.43356 -87.13238 -30.02152 0.07776 0.01845 -4.58774 8.64306 2.71918 
43.56587 95.73016 4.30449 0.86799 48.14663 -126.41949 5.93960 28.69086 -11.52300 -0.01613 0.00131 0.00430 18.97434 8.95218 -36.54762 -3.62277 6.50846 5.46177 -46.58813 27.12461 -77.65270 1.59054 8.65652 -91.25887 20.66258 9.49352 1.84334 33.15779 7.44975 -5.11998 44.32725 -28.64856 21.18299 -22.50928 8.12421 66.62527 9.03744 6.81727 4.57046 45.04369 9.18596 -23.59983 -30.07543 14.89144 82.13325 -16.08571 -0.00094 -0.00315 10.05599 -34.17762 -82.22630 -31.53790 4.76251 -11.52047 102.64247 32.51882 -88.02079 -30.00155 -0.01525 -0.00027 -3.97926 6.79339 2.35047 
42.98418 95.41343 4.90889 -0.10939 46.11089 -128.07254 6.45079 29.68837 -12.29421 0.03892 0.08523 -0.02842 19.54164 7.54094 -37.59763 3.05337 10.01922 -1.41757 -55.89734 19.25131 -76.70033 2.27572 8.49255 -92.03022 20.68929 9.54883 1.87545 31.07677 6.61353 -3.92368 44.83828 -29.70308 22.97235 -20.10183 7.92766 74.09504 20.49362 12.10778 -16.50211 41.79387 10.71199 -23.23401 -30.72664 13.53265 84.04842 -16.30842 -0.00069 -0.00276 10.63184 -35.25851 -81.98646 -27.08035 4.63821 -15.54606 96.49371 38.74736 -87.07896 -29.81272 -0.00936 0.00167 -3.36460 5.60373 2.12565 
42.40973 95.05767 5.59642 -1.00617 44.24851 -129.75066 6.89937 30.57414 -12.98659 -0.00351 0.00259 -0.00030 20.35798 6.34964 -38.67297 7.24074 11.73422 -5.63976 -61.65480 14.36551 -76.51704 3.05070 8.38323 -93.30864 20.76455 9.60043 1.95243 29.50659 5.95126 -3.12284 45.46652 -30.59219 24.86110 -17.88606 8.31617 80.79378 24.64595 11.94278 -23.67582 38.66524 12.02122 -22.80293 -31.35367 12.16200 85.90875 -16.52592 -0.00043 -0.00243 11.20980 -36.27367 -81.73920 -22.59933 4.43554 -19.34489 89.17883 44.78540 -84.70096 -29.43019 -0.00022 0.00363 -2.72065 4.69092 1.98739 
41.83319 94.65873 6.34564 -1.80647 42.50212 -131.47426 7.27596 31.34410 -13.59055 -0.00677 -0.00231 0.00109 21.23519 5.17130 -39.59932 9.47859 12.30033 -7.88427 -65.26498 11.36220 -76.41374 3.65899 8.24435 -94.70234 20.78235 9.63117 2.04406 28.11077 5.30837 -2.40915 47.36695 -32.24303 27.93623 -16.29452 10.44981 86.61337 24.17460 11.18186 -23.16953 35.64902 13.09142 -22.28637 -31.94414 10.77348 87.69770 -16.74136 -0.00035 -0.00231 11.77856 -37.12415 -81.47754 -18.13291 4.30186 -22.77376 80.11416 50.29107 -80.25346 -28.75550 0.00286 0.00477 -2.08413 4.05486 1.88641 
41.23190 94.22114 7.12228 -2.15127 40.39180 -133.83891 7.51281 31.82050 -13.95063 0.00863 0.02352 -0.01182 21.94840 3.80073 -40.11743 10.11035 11.92179 -8.55721 -67.44193 9.52319 -76.25910 4.04249 8.07071 -95.98702 20.70155 9.62659 2.12281 26.65319 4.49850 -1.48774 49.46272 -33.58565 31.16053 -14.92067 12.80425 91.66787 21.33643 10.47138 -18.58299 32.45866 13.69772 -21.09107 -32.48985 9.37764 89.40152 -16.97366 -0.00043 -0.00236 12.32967 -37.78438 -81.21058 -13.92746 3.74973 -25.52326 68.88062 54.80776 -73.30183 -27.77591 0.00617 0.00466 -1.46318 3.67353 1.77465 
40.67411 94.09950 7.86160 -2.62730 37.75776 -136.34892 7.21962 32.26345 -13.82070 0.00065 0.02912 0.01353 22.58664 2.43289 -40.14870 8.91298 13.48607 -5.07948 -67.57522 8.77079 -78.95779 3.88076 7.97235 -96.64433 20.00887 14.53678 4.60287 24.41821 7.03597 0.68808 55.10038 -36.54735 37.93386 -13.63138 15.73229 96.12428 20.68133 7.87461 -13.55744 28.94252 13.74749 -19.85563 -32.88737 8.13008 90.65520 -17.53131 -0.00336 0.00045 16.83103 -34.93165 -82.35188 -10.07326 2.98637 -27.51214 53.57131 57.24429 -61.32930 -24.55058 -0.02408 -0.01925 -1.76711 -0.68795 2.51598 
40.06351 93.94235 8.56878 -3.23350 34.64500 -138.98541 6.38571 32.64713 -13.17829 -0.00404 0.02774 0.01603 23.15129 1.11070 -39.69410 6.83441 13.95412 -1.54045 -67.88721 6.89327 -80.23796 3.30793 8.04370 -96.97103 18.39729 21.35576 8.15449 20.90231 11.73713 3.82591 64.27337 -39.34628 48.23256 -12.44250 19.14394 99.87263 20.73784 4.46759 -8.70872 25.14464 13.20424 -18.63340 -33.20797 6.99874 91.52168 -18.35805 -0.00951 -0.00184 23.39844 -30.25517 -84.63937 -6.56759 2.12205 -28.70144 36.58339 57.03018 -47.19663 -20.41654 -0.03770 -0.05374 -2.04464 -7.45528 4.03526 
39.42002 93.80173 9.24546 -3.98116 31.08607 -141.72833 4.98390 32.93422 -12.01373 -0.00835 0.02722 0.01693 23.66625 -0.15095 -38.83112 4.17862 13.41857 1.95117 -68.45433 4.12820 -80.33460 2.49715 8.42842 -97.12064 15.66101 28.61115 12.16382 17.19425 14.31401 6.47067 72.75211 -38.48627 57.65576 -11.23088 22.90655 102.64188 20.77203 1.02477 -4.10044 21.09362 12.02236 -17.48396 -33.50433 5.95306 92.05273 -19.39299 -0.01705 -0.00525 28.37199 -27.20292 -84.90932 -3.48186 1.21830 -29.07974 20.71286 54.03967 -33.78371 -16.47565 -0.04992 -0.07546 -1.41366 -15.28011 6.16108 
38.76997 93.73248 9.88158 -4.95547 26.02838 -144.78850 1.78296 32.90878 -9.22082 -0.03712 0.08635 0.05608 23.92056 -1.45544 -36.94279 1.01363 9.93145 4.04391 -69.84341 -1.92310 -77.51295 1.51336 10.29660 -96.24723 10.74538 35.04084 14.66230 14.66612 11.23539 7.38478 76.56365 -31.20419 61.54273 -9.28547 26.43283 102.29607 19.52900 -1.12294 0.02386 16.57813 9.15829 -16.69462 -33.78303 5.37236 91.52040 -21.25792 -0.06268 -0.00555 30.14172 -27.41676 -79.81180 -2.03192 -0.19933 -27.37388 8.89826 47.57658 -23.26972 -15.98689 -0.10613 0.00525 2.98831 -24.68497 8.95302 
38.15379 93.76290 10.46408 -6.10890 19.79207 -148.06233 -2.77002 31.12905 -5.88760 -0.02114 -0.01661 0.00739 23.58859 -1.11608 -34.21012 -1.58131 7.20154 5.66558 -72.44102 -10.17418 -74.59368 0.83296 13.94945 -95.04964 15.42806 18.63419 3.98491 12.72266 8.78665 7.66610 78.57188 -21.55883 64.51626 -6.16208 28.59637 99.38567 17.31425 0.79672 4.74608 12.07491 4.64937 -16.43301 -34.30729 4.94640 90.16265 -23.57269 -0.10804 -0.02509 34.25269 -25.18415 -75.09673 -2.18080 -2.13760 -23.95281 2.42481 41.15056 -18.27651 -14.19594 -0.00278 -0.05563 0.94185 -17.14841 6.21427 
37.57417 93.86343 10.99028 -7.21343 14.67190 -150.86357 -6.54098 29.38448 -3.12848 -0.01498 -0.01937 0.00082 22.56999 0.37451 -30.82233 -3.47285 4.97717 6.57894 -76.06813 -20.04435 -72.24088 0.78697 19.34183 -93.91154 14.34271 17.40893 0.76981 11.40108 6.72845 7.56550 78.99732 -10.89747 66.85459 -1.84723 28.57822 94.91655 17.57758 3.86310 9.81818 8.27904 0.38700 -16.78128 -34.06374 5.04702 87.44006 -26.11169 -0.14187 -0.04525 37.66696 -23.56839 -68.31817 -2.71913 -3.00793 -19.85317 -0.74908 35.21709 -16.70743 -13.42144 0.00768 -0.02820 2.06771 -18.89125 6.56197 
37.01560 94.03491 11.45118 -8.18288 10.57841 -153.22220 -9.60714 27.75996 -0.85693 -0.01487 -0.01555 -0.00082 20.74881 2.85650 -26.84652 -4.67062 3.32698 6.90429 -80.92909 -31.04072 -71.22770 1.55769 26.32692 -93.15788 15.55775 2.86612 -7.50534 10.62096 5.14216 7.41068 78.65901 -4.16835 68.34245 6.44186 28.19228 90.96900 15.20326 17.84383 -2.87386 5.00886 -3.46039 -17.62181 -32.96085 5.61515 83.63737 -28.80141 -0.16701 -0.06131 41.40605 -20.98156 -61.37659 -3.83284 -3.05934 -15.32064 -1.63465 29.86949 -17.41528 -12.69391 0.01173 -0.02119 1.78444 -16.53650 5.86850 
